<svg width="192" height="192" viewBox="0 0 192 192" fill="none" xmlns="http://www.w3.org/2000/svg">
  <rect width="192" height="192" rx="24" fill="#2563eb"/>
  <path d="M96 48C70.5 48 48 70.5 48 96C48 121.5 70.5 144 96 144C121.5 144 144 121.5 144 96C144 70.5 121.5 48 96 48ZM96 128C79.4 128 64 112.6 64 96C64 79.4 79.4 64 96 64C112.6 64 128 79.4 128 96C128 112.6 112.6 128 96 128Z" fill="white"/>
  <path d="M96 80C87.2 80 80 87.2 80 96C80 104.8 87.2 112 96 112C104.8 112 112 104.8 112 96C112 87.2 104.8 80 96 80Z" fill="white"/>
</svg>