<svg width="512" height="512" viewBox="0 0 512 512" fill="none" xmlns="http://www.w3.org/2000/svg">
  <rect width="512" height="512" rx="64" fill="#2563eb"/>
  <path d="M256 128C188 128 128 188 128 256C128 324 188 384 256 384C324 384 384 324 384 256C384 188 324 128 256 128ZM256 341.333C211.817 341.333 170.667 300.183 170.667 256C170.667 211.817 211.817 170.667 256 170.667C300.183 170.667 341.333 211.817 341.333 256C341.333 300.183 300.183 341.333 256 341.333Z" fill="white"/>
  <path d="M256 213.333C232.533 213.333 213.333 232.533 213.333 256C213.333 279.467 232.533 298.667 256 298.667C279.467 298.667 298.667 279.467 298.667 256C298.667 232.533 279.467 213.333 256 213.333Z" fill="white"/>
</svg>